<svg width="53" height="10" viewBox="0 0 53 10" fill="none" xmlns="http://www.w3.org/2000/svg">
<path d="M0.84 9V0.599999H3.216V7.116H7.224V9H0.84ZM11.6328 9.156C10.8728 9.156 10.1928 9 9.59278 8.688C8.99278 8.376 8.52078 7.948 8.17678 7.404C7.83278 6.852 7.66078 6.228 7.66078 5.532C7.66078 4.828 7.83278 4.204 8.17678 3.66C8.52078 3.116 8.99278 2.688 9.59278 2.376C10.1928 2.064 10.8728 1.908 11.6328 1.908C12.3928 1.908 13.0728 2.064 13.6728 2.376C14.2728 2.688 14.7448 3.116 15.0888 3.66C15.4328 4.204 15.6048 4.828 15.6048 5.532C15.6048 6.228 15.4328 6.852 15.0888 7.404C14.7448 7.948 14.2728 8.376 13.6728 8.688C13.0728 9 12.3928 9.156 11.6328 9.156ZM11.6328 7.308C11.9528 7.308 12.2328 7.232 12.4728 7.08C12.7208 6.928 12.9128 6.72 13.0488 6.456C13.1928 6.184 13.2648 5.876 13.2648 5.532C13.2648 5.18 13.1928 4.872 13.0488 4.608C12.9128 4.344 12.7208 4.136 12.4728 3.984C12.2328 3.832 11.9528 3.756 11.6328 3.756C11.3208 3.756 11.0408 3.832 10.7928 3.984C10.5448 4.128 10.3488 4.336 10.2048 4.608C10.0608 4.88 9.98878 5.188 9.98878 5.532C9.98878 5.876 10.0608 6.184 10.2048 6.456C10.3488 6.72 10.5448 6.928 10.7928 7.08C11.0408 7.232 11.3208 7.308 11.6328 7.308ZM20.2572 9.156C19.5052 9.156 18.8292 9 18.2292 8.688C17.6292 8.376 17.1572 7.948 16.8132 7.404C16.4772 6.852 16.3092 6.228 16.3092 5.532C16.3092 4.82 16.4772 4.192 16.8132 3.648C17.1572 3.104 17.6292 2.68 18.2292 2.376C18.8292 2.064 19.5052 1.908 20.2572 1.908C20.9292 1.908 21.5252 2.012 22.0452 2.22C22.5652 2.428 23.0092 2.776 23.3772 3.264L21.8892 4.572C21.6732 4.292 21.4332 4.088 21.1692 3.96C20.9132 3.824 20.6372 3.756 20.3412 3.756C20.0132 3.756 19.7172 3.828 19.4532 3.972C19.1972 4.116 18.9972 4.32 18.8532 4.584C18.7092 4.848 18.6372 5.164 18.6372 5.532C18.6372 5.892 18.7092 6.208 18.8532 6.48C18.9972 6.744 19.1972 6.948 19.4532 7.092C19.7172 7.236 20.0132 7.308 20.3412 7.308C20.6372 7.308 20.9132 7.24 21.1692 7.104C21.4332 6.968 21.6732 6.764 21.8892 6.492L23.3772 7.788C23.0092 8.276 22.5652 8.628 22.0452 8.844C21.5252 9.052 20.9292 9.156 20.2572 9.156ZM26.8541 9L24.0221 0.599999H24.9341L27.5861 8.508H27.1301L29.8661 0.599999H30.6821L33.3821 8.508H32.9501L35.6261 0.599999H36.4781L33.6461 9H32.7101L30.1301 1.5H30.3701L27.7781 9H26.8541ZM38.0334 9V2.22H38.8974V9H38.0334ZM45.9202 7.152C45.9202 7.528 45.8162 7.86 45.6082 8.148C45.4082 8.436 45.1122 8.664 44.7202 8.832C44.3362 8.992 43.8602 9.072 43.2922 9.072C42.7722 9.072 42.2722 8.992 41.7922 8.832C41.3202 8.672 40.9482 8.468 40.6762 8.22L41.0362 7.548C41.2842 7.78 41.6122 7.972 42.0202 8.124C42.4362 8.268 42.8682 8.34 43.3162 8.34C43.9402 8.34 44.3842 8.232 44.6482 8.016C44.9202 7.792 45.0562 7.528 45.0562 7.224C45.0562 6.968 44.9802 6.768 44.8282 6.624C44.6762 6.472 44.4762 6.352 44.2282 6.264C43.9802 6.168 43.7082 6.088 43.4122 6.024C43.1162 5.96 42.8202 5.888 42.5242 5.808C42.2282 5.728 41.9522 5.62 41.6962 5.484C41.4482 5.348 41.2482 5.168 41.0962 4.944C40.9522 4.72 40.8802 4.424 40.8802 4.056C40.8802 3.688 40.9802 3.36 41.1802 3.072C41.3802 2.784 41.6722 2.556 42.0562 2.388C42.4402 2.22 42.9122 2.136 43.4722 2.136C43.8722 2.136 44.2642 2.188 44.6482 2.292C45.0402 2.388 45.3762 2.536 45.6562 2.736L45.3442 3.432C45.0562 3.232 44.7482 3.092 44.4202 3.012C44.0922 2.924 43.7682 2.88 43.4482 2.88C42.8562 2.88 42.4202 2.992 42.1402 3.216C41.8682 3.432 41.7322 3.7 41.7322 4.02C41.7322 4.276 41.8082 4.48 41.9602 4.632C42.1122 4.776 42.3122 4.896 42.5602 4.992C42.8082 5.08 43.0802 5.156 43.3762 5.22C43.6802 5.284 43.9802 5.356 44.2762 5.436C44.5722 5.516 44.8442 5.624 45.0922 5.76C45.3402 5.888 45.5402 6.064 45.6922 6.288C45.8442 6.512 45.9202 6.8 45.9202 7.152ZM48.4214 5.208H52.0694V5.916H48.4214V5.208ZM48.5654 8.28H52.6334V9H47.7014V2.22H52.4894V2.94H48.5654V8.28Z" fill="black"/>
</svg>
